<svg width="16" height="13" viewBox="0 0 16 13" fill="none" xmlns="http://www.w3.org/2000/svg">
<path fill-rule="evenodd" clip-rule="evenodd" d="M10.3573 4.41826C10.4548 4.25315 10.5061 4.06586 10.5061 3.8752C10.5061 3.68455 10.4548 3.49726 10.3573 3.33215L8.71137 0.543009C8.61393 0.377912 8.47379 0.240815 8.30504 0.145498C8.13628 0.0501804 7.94486 0 7.75 0C7.55514 0 7.36371 0.0501804 7.19496 0.145498C7.0262 0.240815 6.88607 0.377912 6.78863 0.543009L0.398729 11.3701C0.301296 11.5352 0.250001 11.7225 0.25 11.9132C0.249999 12.1038 0.301291 12.2911 0.398722 12.4562C0.496153 12.6213 0.636289 12.7584 0.805046 12.8538C0.973803 12.9491 1.16523 12.9993 1.3601 12.9993H4.652C4.84699 12.9994 5.03857 12.9493 5.20747 12.8539C5.37637 12.7586 5.51662 12.6214 5.61411 12.4562L10.3573 4.41826ZM14.1392 13C14.3341 13.0001 14.5256 12.95 14.6945 12.8548C14.8633 12.7595 15.0036 12.6224 15.1011 12.4572C15.1986 12.2921 15.25 12.1048 15.25 11.9141C15.25 11.7233 15.1987 11.536 15.1013 11.3708L12.7818 7.44055C12.6844 7.27545 12.5443 7.13836 12.3755 7.04304C12.2068 6.94772 12.0153 6.89754 11.8205 6.89754C11.6256 6.89754 11.4342 6.94772 11.2654 7.04304C11.0967 7.13836 10.9565 7.27545 10.8591 7.44055L8.53967 11.3708C8.44224 11.5359 8.39094 11.7232 8.39094 11.9139C8.39094 12.1045 8.44223 12.2918 8.53966 12.4569C8.63709 12.622 8.77723 12.7591 8.94599 12.8545C9.11474 12.9498 9.30618 13 9.50104 13H14.1392Z" fill="#E84142"/>
</svg>
