<svg width="16" height="13" viewBox="0 0 16 13" fill="none" xmlns="http://www.w3.org/2000/svg">
<path d="M11.5993 3.9638C11.4527 3.88578 11.2892 3.84498 11.1231 3.84498C10.957 3.84498 10.7935 3.88578 10.647 3.9638L8.50021 5.23195L7.0006 6.0645L4.85384 7.33334C4.70728 7.41136 4.54376 7.45217 4.3777 7.45217C4.21163 7.45217 4.04811 7.41136 3.90156 7.33334L2.19543 6.34155C2.055 6.26066 1.93755 6.14533 1.85417 6.00647C1.7708 5.86761 1.72425 5.70981 1.71893 5.54797V3.56824C1.71591 3.40467 1.75896 3.24354 1.84317 3.10323C1.92739 2.96292 2.04939 2.84907 2.19525 2.77467L3.90156 1.8236C4.04801 1.74525 4.21156 1.70426 4.3777 1.70426C4.54383 1.70426 4.70739 1.74525 4.85384 1.8236L6.55997 2.77484C6.70036 2.85575 6.81777 2.97109 6.90112 3.10995C6.98446 3.2488 7.03098 3.4066 7.03628 3.56842V4.83568L8.50021 3.96398V2.73569C8.50418 2.57293 8.46241 2.41231 8.37966 2.27204C8.2969 2.13178 8.17645 2.01748 8.03198 1.94211L4.89286 0.119343C4.74641 0.0409952 4.58285 0 4.41672 0C4.25058 0 4.08703 0.0409952 3.94057 0.119343L0.766651 1.94211C0.608197 2.0036 0.473126 2.11332 0.380572 2.25575C0.288019 2.39818 0.242675 2.56609 0.250964 2.73569V6.42108C0.248644 6.58398 0.292053 6.74427 0.376271 6.88379C0.460488 7.0233 0.582146 7.13647 0.727456 7.21045L3.90156 9.0376C4.04811 9.11562 4.21163 9.15643 4.3777 9.15643C4.54376 9.15643 4.70728 9.11562 4.85384 9.0376L7.0006 7.80861L8.46857 6.93691L10.608 5.71195C10.7545 5.63394 10.918 5.59313 11.0841 5.59313C11.2502 5.59313 11.4137 5.63394 11.5602 5.71195L13.2664 6.66319C13.4067 6.74412 13.5241 6.85947 13.6073 6.99834C13.6906 7.1372 13.737 7.29499 13.7422 7.45677V9.39893C13.7452 9.56234 13.7022 9.72333 13.6181 9.86352C13.534 10.0037 13.4121 10.1175 13.2664 10.1918L11.5602 11.182C11.4138 11.2604 11.2502 11.3014 11.0841 11.3014C10.918 11.3014 10.7544 11.2604 10.608 11.182L8.90183 10.2308C8.76145 10.1501 8.64401 10.0349 8.56063 9.89618C8.47725 9.75746 8.43068 9.59979 8.42533 9.43808V8.1652L7.0006 8.99705V10.2645C6.99746 10.428 7.04041 10.5891 7.12454 10.7295C7.20867 10.8698 7.33059 10.9836 7.47639 11.0581L10.6505 12.8807C10.7971 12.959 10.9607 13 11.127 13C11.2932 13 11.4569 12.959 11.6035 12.8807L14.7774 11.0577C14.9169 10.9765 15.0334 10.8612 15.1161 10.7227C15.1987 10.5841 15.2447 10.4269 15.2498 10.2657V6.57874C15.2529 6.41524 15.2098 6.25418 15.1256 6.11397C15.0413 5.97376 14.9192 5.86006 14.7734 5.78587L11.5993 3.9638Z" fill="#7950DD"/>
</svg>
